{
	"asset": {
		"generator": "Blocks 2.0.1_SVR_RC5",
		"version": "1.1",
		"copyright": "Unknown"
	},
	"buffers": {
		"model": {
			"byteLength": 78044,
			"type": "arraybuffer",
			"uri": "model.bin"
		}
	},
	"accessors": {
		"accessor_position_m0-PolyPaper14_-791598": {
			"bufferView": "vec3BufferView",
			"byteOffset": 0,
			"byteStride": 12,
			"componentType": 5126,
			"count": 1808,
			"max": [ -0.2406334, 2.464889, -1.458246 ],
			"min": [ -0.8880221, -0.007672434, -2.308717 ],
			"type": "VEC3"
		 },
		"accessor_normal_m0-PolyPaper14_-791598": {
			"bufferView": "vec3BufferView",
			"byteOffset": 21696,
			"byteStride": 12,
			"componentType": 5126,
			"count": 1808,
			"max": [ 0.9851852, 0.999998, 0.986415 ],
			"min": [ -0.9907857, -0.999998, -0.9759572 ],
			"type": "VEC3"
		 },
		"accessor_color_m0-PolyPaper14_-791598": {
			"bufferView": "vec4BufferView",
			"byteOffset": 0,
			"byteStride": 16,
			"componentType": 5126,
			"count": 1808,
			"max": [ 1, 1, 1, 1 ],
			"min": [ 0.1019608, 0.1019608, 0.1019608, 1 ],
			"type": "VEC4"
		 },
		"accessor_indices_0_m0-PolyPaper14_-791598": {
			"bufferView": "ushortBufferView",
			"byteOffset": 0,
			"byteStride": 0,
			"componentType": 5123,
			"count": 2346,
			"max": [ 1807 ],
			"min": [ 0 ],
			"type": "SCALAR"
		 },
		"accessor_position_m1-PolyGlass24_-791280": {
			"bufferView": "vec3BufferView",
			"byteOffset": 43392,
			"byteStride": 12,
			"componentType": 5126,
			"count": 24,
			"max": [ -0.3298902, 2.403725, -1.535601 ],
			"min": [ -0.7380556, 1.889504, -2.231823 ],
			"type": "VEC3"
		 },
		"accessor_normal_m1-PolyGlass24_-791280": {
			"bufferView": "vec3BufferView",
			"byteOffset": 43680,
			"byteStride": 12,
			"componentType": 5126,
			"count": 24,
			"max": [ 0.8705848, 0.9999329, 0.8706469 ],
			"min": [ -0.8705847, -0.9999328, -0.8706381 ],
			"type": "VEC3"
		 },
		"accessor_color_m1-PolyGlass24_-791280": {
			"bufferView": "vec4BufferView",
			"byteOffset": 28928,
			"byteStride": 16,
			"componentType": 5126,
			"count": 24,
			"max": [ 0.8392157, 0.8392157, 0.8392157, 0.2509804 ],
			"min": [ 0.8392157, 0.8392157, 0.8392157, 0.2509804 ],
			"type": "VEC4"
		 },
		"accessor_indices_0_m1-PolyGlass24_-791280": {
			"bufferView": "ushortBufferView",
			"byteOffset": 4692,
			"byteStride": 0,
			"componentType": 5123,
			"count": 36,
			"max": [ 23 ],
			"min": [ 0 ],
			"type": "SCALAR"
		 }
	},
	"bufferViews": {
		"ushortBufferView": {
			"buffer": "model",
			"byteLength": 4764,
			"byteOffset": 0,
			"target": 34963
		},
		"vec3BufferView": {
			"buffer": "model",
			"byteLength": 43968,
			"byteOffset": 4764,
			"target": 34962
		},
		"vec4BufferView": {
			"buffer": "model",
			"byteLength": 29312,
			"byteOffset": 48732,
			"target": 34962
		}
	},
	"meshes": {
		"mesh_m0-PolyPaper14_-791598": {
			"name": "mesh_m0-PolyPaper14_-791598",
			"primitives": [
				{
					"attributes": {
						"POSITION": "accessor_position_m0-PolyPaper14_-791598",
						"NORMAL": "accessor_normal_m0-PolyPaper14_-791598",
						"COLOR": "accessor_color_m0-PolyPaper14_-791598"
					},
					"indices": "accessor_indices_0_m0-PolyPaper14_-791598",
					"material": "material_mat14",
					"mode": 4
				}
			]
		},
		"mesh_m1-PolyGlass24_-791280": {
			"name": "mesh_m1-PolyGlass24_-791280",
			"primitives": [
				{
					"attributes": {
						"POSITION": "accessor_position_m1-PolyGlass24_-791280",
						"NORMAL": "accessor_normal_m1-PolyGlass24_-791280",
						"COLOR": "accessor_color_m1-PolyGlass24_-791280"
					},
					"indices": "accessor_indices_0_m1-PolyGlass24_-791280",
					"material": "material_mat24",
					"mode": 4
				}
			]
		}
	},
	"shaders": {
		"vertex_mat14": {
			"type": 35633,
			"uri": "https://vr.google.com/shaders/w/vs.glsl"
		},
		"fragment_mat14": {
			"type": 35632,
			"uri": "https://vr.google.com/shaders/w/fs.glsl"
		},
		"vertex_mat24": {
			"type": 35633,
			"uri": "https://vr.google.com/shaders/w/glassVS.glsl"
		},
		"fragment_mat24": {
			"type": 35632,
			"uri": "https://vr.google.com/shaders/w/glassFS.glsl"
		}
	},
	"programs": {
		"program_mat14": {
			"attributes": [
				"a_position",
				"a_normal",
				"a_color"				
			],
			"vertexShader": "vertex_mat14",
			"fragmentShader": "fragment_mat14"
		},
		"program_mat24": {
			"attributes": [
				"a_position",
				"a_normal",
				"a_color"				
			],
			"vertexShader": "vertex_mat24",
			"fragmentShader": "fragment_mat24"
		}
	},
	"techniques": {
		"technique_mat14": {
			"program": "program_mat14",
			"extras": {"gvrss" : "https://vr.google.com/shaders/w/gvrss/paper.json"},
			"parameters": {
				"position": {
					"type": 35665,
					"semantic": "POSITION"
				},
				"normal": {
					"type": 35665,
					"semantic": "NORMAL"
				},
				"color": {
					"type": 35666,
					"semantic": "COLOR"
				},
				"modelViewMatrix": {
					"type": 35676,
					"semantic": "MODELVIEW"
				},
				"projectionMatrix": {
					"type": 35676,
					"semantic": "PROJECTION"
				},
				"normalMatrix": {
					"type": 35675,
					"semantic": "MODELVIEWINVERSETRANSPOSE"
				},
				"color": {
					"type": 35666
				},
				"roughness": {
					"type": 5126
				},
				"metallic": {
					"type": 5126
				},
				"light0Pos": {
					"type": 35666
				},
				"light0Color": {
					"type": 35666
				},
				"light1Pos": {
					"type": 35666
				},
				"light1Color": {
					"type": 35666
				}				
			},
			"attributes": {
				"a_position": "position",
				"a_normal": "normal",
				"a_color": "color"				
			},
			"uniforms": {
				"u_modelViewMatrix": "modelViewMatrix",
				"u_projectionMatrix": "projectionMatrix",
				"u_normalMatrix": "normalMatrix",
				"u_color": "color",
				"u_roughness": "roughness",
				"u_metallic": "metallic",
				"u_light0Pos": "light0Pos",
				"u_light0Color": "light0Color",
				"u_light1Pos": "light1Pos",
				"u_light1Color": "light1Color"				
			},
			"states": {
				"enable": [
					2929,
					2884
				],
				"functions": {
					"cullFace": [1029]
				}
			}
		},
		"technique_mat24": {
			"program": "program_mat24",
			"extras": {"gvrss" : "https://vr.google.com/shaders/w/gvrss/glass.json"},
			"parameters": {
				"position": {
					"type": 35665,
					"semantic": "POSITION"
				},
				"normal": {
					"type": 35665,
					"semantic": "NORMAL"
				},
				"color": {
					"type": 35666,
					"semantic": "COLOR"
				},
				"modelViewMatrix": {
					"type": 35676,
					"semantic": "MODELVIEW"
				},
				"projectionMatrix": {
					"type": 35676,
					"semantic": "PROJECTION"
				},
				"normalMatrix": {
					"type": 35675,
					"semantic": "MODELVIEWINVERSETRANSPOSE"
				},
				"color": {
					"type": 35666
				},
				"roughness": {
					"type": 5126
				},
				"metallic": {
					"type": 5126
				},
				"light0Pos": {
					"type": 35666
				},
				"light0Color": {
					"type": 35666
				},
				"light1Pos": {
					"type": 35666
				},
				"light1Color": {
					"type": 35666
				}				
			},
			"attributes": {
				"a_position": "position",
				"a_normal": "normal",
				"a_color": "color"				
			},
			"uniforms": {
				"u_modelViewMatrix": "modelViewMatrix",
				"u_projectionMatrix": "projectionMatrix",
				"u_normalMatrix": "normalMatrix",
				"u_color": "color",
				"u_roughness": "roughness",
				"u_metallic": "metallic",
				"u_light0Pos": "light0Pos",
				"u_light0Color": "light0Color",
				"u_light1Pos": "light1Pos",
				"u_light1Color": "light1Color"				
			},
			"states": {
				"enable": [
					2929,
					3042
				],
				"functions": {
					"blendFuncSeparate": [775, 774, 773, 772],
					"depthMask": [true]
				}
			}
		}
	},
	"materials": {
		"material_mat14": {
			"technique": "technique_mat14",
			"values": {
				"color": [1, 0.3411765, 0.1333333, 1],
				"roughness": 0.72,
				"metallic": 0,
				"light0Pos": [-0.02, 4.11, -0.54, 0],
				"light0Color": [0.8, 0.8, 0.8, 0],
				"light1Pos": [0.02, -4.11, 0.54, 0],
				"light1Color": [0.64, 0.64, 0.64, 0]				
			},
			"name": "material_mat14"
		},
		"material_mat24": {
			"technique": "technique_mat24",
			"values": {
				"color": [0.8392157, 0.8392157, 0.8392157, 0.2509804],
				"roughness": 0,
				"metallic": 0,
				"light0Pos": [-0.02, 4.11, -0.54, 0],
				"light0Color": [0.8, 0.8, 0.8, 0],
				"light1Pos": [0.02, -4.11, 0.54, 0],
				"light1Color": [0.64, 0.64, 0.64, 0]				
			},
			"name": "material_mat24"
		}
	},
	"nodes": {
		"node_MeshObject-1303212352-PolyPaper14": {
			"name": "node_MeshObject-1303212352-PolyPaper14",
			"meshes": [
				"mesh_m0-PolyPaper14_-791598"
			],
			"matrix": [1, 0, 0, 0, 0, 1, 0, 0, 0, 0, 1, 0, 0, 0, 0, 1]
		},
		"node_MeshObject1389194048-PolyGlass24": {
			"name": "node_MeshObject1389194048-PolyGlass24",
			"meshes": [
				"mesh_m1-PolyGlass24_-791280"
			],
			"matrix": [1, 0, 0, 0, 0, 1, 0, 0, 0, 0, 1, 0, 0, 0, 0, 1]
		}
	},
	"scene": "defaultScene",
	"scenes": {
		"defaultScene": {
			"nodes": [
				"node_MeshObject-1303212352-PolyPaper14",
				"node_MeshObject1389194048-PolyGlass24"
			],
			"extras": {

			}
		}
	}
}